<?xml version="1.0" standalone="no"?>
<!DOCTYPE svg PUBLIC "-//W3C//DTD SVG 20010904//EN"
 "http://www.w3.org/TR/2001/REC-SVG-20010904/DTD/svg10.dtd">
<svg version="1.0" xmlns="http://www.w3.org/2000/svg"
 width="1124.000000pt" height="1123.000000pt" viewBox="0 0 1124.000000 1123.000000"
 preserveAspectRatio="xMidYMid meet">

<g transform="translate(0.000000,1123.000000) scale(0.100000,-0.100000)"
fill="#000000" stroke="none">
<path d="M0 5615 l0 -5615 5620 0 5620 0 -2 1308 -3 1307 -50 -3 c-34 -2 -68
3 -103 17 -56 22 -122 28 -122 11 0 -12 -51 12 -74 35 -8 9 -34 17 -56 20 -23
2 -52 11 -65 19 -16 11 -53 16 -124 17 -56 1 -104 5 -106 10 -3 4 31 7 75 5
53 -2 80 1 80 8 0 6 5 4 10 -4 8 -13 10 -13 10 1 0 9 -9 19 -20 22 -11 3 -19
11 -18 19 2 9 -13 14 -55 16 -37 2 -57 -1 -53 -7 15 -23 -16 -20 -39 5 -14 15
-25 21 -25 13 0 -10 -3 -10 -12 -1 -7 7 -29 12 -50 12 -37 0 -38 1 -37 38 1
20 3 29 6 19 3 -10 14 -17 29 -17 13 0 24 -4 24 -10 0 -5 5 -10 10 -10 6 0 10
23 10 50 l0 50 -40 0 c-33 0 -40 -3 -40 -20 0 -11 -4 -20 -10 -20 -13 0 -13
57 0 65 13 8 13 35 0 35 -6 0 -24 14 -42 30 -35 34 -48 27 -48 -22 0 -17 -5
-28 -13 -28 -17 0 -38 45 -31 65 4 9 1 15 -7 15 -7 0 6 17 29 38 23 21 42 44
42 50 0 8 18 12 48 13 26 0 41 3 33 6 -10 4 -4 11 20 23 24 12 40 14 53 7 25
-12 266 0 283 15 7 6 71 12 144 13 96 2 134 6 140 16 6 11 14 10 43 -4 20 -9
36 -13 36 -8 0 4 18 7 39 5 22 -1 49 0 60 3 21 5 21 11 21 329 l0 323 -127 1
c-249 1 -478 8 -496 15 -12 5 -14 11 -8 19 7 9 2 12 -20 14 -16 1 -29 -2 -29
-8 0 -13 -77 -13 -82 -1 -1 5 -41 11 -88 12 -69 2 -88 6 -98 21 -7 10 -18 16
-23 12 -14 -8 -135 -8 -194 1 -27 4 -66 8 -85 10 -82 7 -151 18 -156 26 -3 5
-13 9 -23 9 -9 0 -22 5 -28 11 -7 7 -55 11 -133 10 -81 -1 -126 2 -136 10 -11
9 -14 9 -14 0 0 -7 -5 -9 -11 -6 -6 4 -8 9 -5 12 9 9 -14 43 -29 43 -8 0 -15
5 -15 10 0 6 -33 10 -80 10 -47 0 -80 -4 -80 -10 0 -5 -17 -10 -38 -10 -26 0
-42 6 -52 20 -15 21 -50 28 -50 10 0 -5 5 -10 10 -10 6 0 10 -4 10 -10 0 -5
-9 -10 -21 -10 -13 0 -20 6 -18 18 3 35 -2 42 -32 42 -17 0 -28 4 -24 10 3 5
17 10 31 10 13 0 24 5 24 10 0 6 18 10 40 10 22 0 40 5 40 10 0 6 9 10 21 10
12 0 23 8 26 20 3 11 9 20 14 20 5 0 9 18 9 40 0 22 -5 40 -11 40 -7 0 -8 14
-4 40 7 39 6 40 -24 40 -24 0 -31 4 -31 20 0 17 -7 20 -40 20 -33 0 -40 -3
-40 -20 0 -24 -6 -25 -26 -6 -17 17 -18 40 -4 67 8 13 7 19 0 19 -6 0 -9 4 -6
9 8 12 136 11 136 0 0 -5 -4 -9 -10 -9 -5 0 -10 -5 -10 -12 0 -6 8 -3 20 7 11
10 17 22 13 28 -3 5 -1 7 5 3 6 -3 13 -2 17 4 3 5 1 10 -6 10 -33 0 11 19 51
22 25 2 60 12 79 21 29 14 50 16 128 11 68 -5 93 -11 93 -20 0 -19 17 -18 27
1 10 16 92 31 119 21 28 -11 1031 -11 1327 0 l167 7 -2 301 -3 301 -70 0 c-38
-1 -73 3 -76 7 -3 4 -69 10 -147 12 -117 3 -142 1 -142 -10 0 -12 -4 -12 -29
0 -15 8 -37 16 -47 16 -10 1 -111 5 -224 10 -227 10 -260 13 -260 20 0 3 -37
4 -82 3 -46 -1 -88 3 -95 8 -6 6 -41 11 -77 11 -41 1 -64 5 -63 12 1 7 -27 11
-83 11 -63 0 -84 -3 -82 -13 3 -15 -18 -12 -37 7 -12 10 -35 12 -107 7 l-91
-7 -31 30 c-26 26 -38 31 -81 31 -28 0 -51 -4 -51 -10 0 -5 -9 -10 -20 -10
-11 0 -20 5 -20 11 0 7 -10 9 -26 6 -15 -2 -31 2 -40 11 -15 15 -104 19 -126
6 -6 -4 -9 -1 -6 7 3 8 25 16 54 20 27 3 43 7 37 7 -7 1 -13 7 -13 13 0 15
-26 39 -42 39 -8 0 -20 -9 -28 -20 -11 -15 -26 -20 -57 -20 -41 0 -43 -1 -37
-24 3 -14 1 -27 -7 -31 -7 -5 -10 -4 -6 2 4 6 -5 23 -19 38 -28 30 -27 51 2
48 10 -1 23 5 27 13 4 8 17 14 27 14 11 0 25 9 32 20 13 21 48 28 48 10 0 -15
40 -12 41 3 1 6 2 23 3 36 1 28 10 31 133 38 66 3 83 8 83 20 0 11 -8 14 -30
11 -34 -5 -41 7 -9 17 12 4 26 2 32 -4 6 -6 46 -11 89 -11 45 0 78 -4 78 -10
0 -6 29 -10 66 -10 43 0 63 4 59 11 -5 6 10 9 42 8 26 -1 58 3 71 10 12 6 55
11 95 11 39 -1 88 2 107 5 19 3 85 10 145 14 131 11 123 9 105 21 -10 7 10 10
67 10 45 0 83 -4 85 -10 3 -9 245 2 328 15 31 5 206 12 425 18 l80 2 3 423 2
422 -37 1 c-21 0 -32 3 -25 6 7 2 17 13 22 23 8 16 6 17 -37 9 -25 -5 -63 -6
-84 -3 -26 5 -39 3 -39 -5 0 -8 -41 -11 -145 -10 -80 1 -145 5 -145 9 0 10 62
20 122 20 29 0 50 5 55 14 11 18 134 35 157 22 12 -8 19 -7 26 4 8 12 10 12
10 1 0 -11 4 -11 18 2 10 10 28 17 39 17 12 0 23 6 26 13 3 9 -11 11 -57 10
-33 -1 -73 -4 -88 -7 -16 -2 -28 0 -28 5 0 5 7 9 15 9 8 0 15 5 15 10 0 6 6
10 14 10 7 0 19 7 26 15 7 8 22 15 34 15 12 0 32 10 46 23 14 13 33 26 43 30
16 6 17 74 17 1234 0 675 -4 1233 -8 1239 -4 6 -15 13 -24 17 -17 6 -58 79
-58 104 0 7 -12 18 -27 24 -22 8 -30 7 -37 -4 -8 -12 -16 -7 -43 22 -18 20
-33 39 -33 43 0 4 -34 41 -75 81 -73 72 -89 94 -62 84 6 -2 20 2 30 11 15 14
19 14 35 0 16 -14 38 -15 105 -5 22 4 37 25 30 43 -3 9 2 12 17 9 26 -5 38 20
22 46 -15 23 -15 56 -2 64 5 3 33 -1 62 -10 28 -8 55 -15 60 -15 4 0 8 146 8
324 0 313 -1 325 -20 339 -11 8 -17 17 -13 20 10 10 -112 8 -123 -2 -16 -15
-119 -41 -122 -31 -6 16 -72 12 -88 -5 -17 -17 -57 -20 -82 -6 -12 6 -29 3
-53 -8 -29 -14 -67 -18 -198 -20 -107 -2 -161 1 -161 8 0 6 -12 14 -27 17 -16
4 -46 17 -69 30 -22 13 -53 24 -67 24 -15 0 -27 5 -27 10 0 6 -7 10 -15 10 -8
0 -15 -4 -15 -10 0 -5 -6 -10 -14 -10 -9 0 -12 -7 -9 -21 4 -16 2 -20 -8 -17
-8 3 -13 12 -11 20 3 17 -46 31 -63 18 -13 -10 -75 -1 -75 11 0 5 -9 9 -20 9
-12 0 -38 18 -59 40 -21 22 -43 40 -49 40 -7 0 -12 4 -12 8 0 5 -11 14 -25 20
-13 6 -27 23 -31 37 -3 14 -13 25 -21 25 -9 0 -31 9 -49 21 -24 14 -34 17 -34
8 0 -10 -3 -10 -12 0 -11 11 -10 14 0 18 8 3 3 12 -15 26 -15 12 -31 22 -35
22 -5 0 -7 5 -5 10 1 6 5 9 10 7 4 -1 7 2 7 8 0 5 -7 10 -15 10 -8 0 -15 5
-15 10 0 6 -6 10 -13 10 -21 0 -48 35 -41 53 3 10 11 14 18 10 6 -4 23 -6 38
-4 15 1 36 -3 48 -9 31 -17 33 -9 14 49 -23 72 -16 82 53 82 32 -1 96 1 143 4
239 13 300 19 300 27 0 4 9 8 19 8 11 0 23 5 26 11 5 6 27 8 61 3 34 -4 54 -3
54 4 0 5 24 13 53 16 68 8 73 7 137 -1 30 -5 159 -4 285 1 127 5 269 8 318 7
55 -1 87 2 87 8 0 6 9 11 20 11 17 0 20 7 20 50 l0 50 -5620 0 -5620 0 0
-5615z m9414 5219 c10 -25 7 -74 -4 -74 -5 0 -10 13 -10 29 0 16 -3 36 -6 45
-3 9 -2 16 4 16 5 0 13 -7 16 -16z m50 -55 c-8 -14 -24 -10 -24 6 0 9 6 12 15
9 8 -4 12 -10 9 -15z m96 -39 c0 -4 -3 -22 -6 -39 -7 -34 -34 -43 -34 -11 0
13 -7 20 -18 20 -11 0 -26 8 -35 18 -15 17 -14 18 15 20 18 2 34 4 36 6 6 6
42 -6 42 -14z m-873 -96 c-3 -3 -12 -4 -19 -1 -8 3 -5 6 6 6 11 1 17 -2 13 -5z
m1013 -24 c0 -5 -4 -10 -10 -10 -5 0 -10 5 -10 10 0 6 5 10 10 10 6 0 10 -4
10 -10z m-3962 -20 c32 -21 27 -30 -18 -30 -22 0 -40 5 -40 10 0 6 -13 10 -30
10 -21 0 -28 4 -24 14 7 19 80 16 112 -4z m4025 -16 c-2 -6 0 -15 6 -19 14 -8
14 -25 1 -25 -5 0 -10 7 -10 15 0 11 -11 15 -41 15 -22 0 -38 4 -34 9 3 6 14
8 25 6 11 -2 22 0 24 4 8 13 34 9 29 -5z m-9127 -59 c19 -14 18 -15 -6 -35
-28 -22 -39 -21 -53 2 -25 38 19 63 59 33z m8494 -30 c0 -8 -2 -15 -4 -15 -2
0 -6 7 -10 15 -3 8 -1 15 4 15 6 0 10 -7 10 -15z m-3637 -22 c10 -6 9 -43 -2
-43 -5 0 -14 6 -20 14 -8 10 -23 13 -45 9 -36 -6 -59 13 -35 28 13 8 84 3 102
-8z m5357 -733 c0 -5 -4 -10 -9 -10 -6 0 -13 5 -16 10 -3 6 1 10 9 10 9 0 16
-4 16 -10z m-9907 -344 c9 -7 17 -18 17 -25 0 -6 17 -11 40 -11 29 0 40 4 40
15 0 30 23 13 35 -25 15 -49 29 -60 77 -60 26 0 48 5 48 10 0 6 5 10 10 10 6
0 10 -9 10 -20 0 -11 5 -20 10 -20 6 0 10 -9 10 -20 0 -13 -7 -20 -18 -20 -11
0 -27 -9 -37 -20 -10 -11 -22 -17 -27 -14 -4 3 -8 2 -7 -3 4 -20 -2 -27 -12
-13 -9 13 -10 12 -5 -2 3 -10 1 -20 -4 -23 -6 -4 -10 -24 -10 -46 0 -21 -5
-39 -10 -39 -6 0 -21 -11 -33 -24 -19 -20 -29 -23 -69 -19 -38 4 -48 9 -51 26
-3 12 -4 0 -2 -28 l3 -50 -51 4 c-39 3 -47 6 -32 12 19 7 19 8 -2 8 -29 1 -31
31 -2 31 23 0 23 15 -2 79 -11 27 -11 35 -1 38 19 7 16 83 -3 83 -9 0 -18 -7
-21 -15 -4 -8 -13 -15 -21 -15 -26 0 -41 31 -35 73 3 28 2 38 -6 33 -8 -4 -8
3 -1 26 5 18 9 34 9 36 0 1 9 -2 20 -8 11 -6 20 -20 20 -30 0 -23 4 -24 31
-10 13 7 19 7 19 0 0 -16 30 -12 37 6 4 11 -2 23 -18 35 -24 18 -24 18 -4 33
24 19 26 19 48 2z m657 -47 c0 -33 6 -48 30 -70 16 -16 38 -29 49 -29 17 0 18
-6 15 -47 -3 -28 0 -49 6 -53 13 -8 3 -80 -11 -80 -5 0 -9 -5 -9 -11 0 -14
-55 -69 -69 -69 -6 0 -11 -4 -11 -10 0 -5 -18 -10 -40 -10 -30 0 -40 -4 -40
-16 0 -13 -3 -14 -13 -5 -8 6 -16 10 -18 8 -2 -1 -3 0 -2 2 4 7 -31 30 -45 31
-7 0 -10 -5 -6 -12 4 -7 3 -8 -5 -4 -6 4 -8 12 -5 18 5 7 1 9 -9 5 -14 -5 -32
16 -29 34 1 4 -8 15 -19 25 -20 18 -21 18 -35 -1 -12 -17 -16 -18 -24 -5 -6
10 -2 18 18 27 26 13 52 53 52 80 0 7 -9 28 -20 48 -21 37 -27 105 -10 105 6
0 10 -9 10 -20 0 -11 4 -20 10 -20 5 0 15 9 22 20 9 14 24 20 50 20 31 0 38 4
38 20 0 11 -4 20 -10 20 -5 0 -10 9 -10 20 0 18 7 20 70 20 l70 0 0 -41z
m-320 2 c0 -4 -13 -6 -30 -3 -18 3 -30 0 -30 -7 0 -7 -20 -11 -50 -11 -37 0
-50 4 -50 14 0 12 17 15 80 14 44 0 80 -3 80 -7z m85 -1012 c6 -4 37 -4 70 -2
120 8 245 8 245 0 0 -4 6 -7 13 -6 23 3 33 -1 55 -21 16 -15 20 -27 15 -54 -4
-25 -1 -40 11 -51 9 -10 16 -34 16 -58 1 -23 5 -61 9 -84 4 -23 4 -63 -1 -90
-9 -50 -9 -57 -7 -98 2 -30 -20 -85 -33 -85 -6 0 -22 -9 -36 -19 -25 -17 -44
-19 -200 -16 -170 3 -173 3 -198 28 -20 20 -32 24 -58 20 -20 -3 -36 -1 -40 6
-4 6 -14 11 -23 11 -9 0 -13 -3 -10 -7 4 -3 -6 -13 -21 -21 -34 -19 -209 -29
-225 -13 -8 8 -8 11 1 11 7 0 12 7 12 17 0 14 -2 14 -17 2 -37 -30 -61 -39
-66 -26 -3 7 -6 5 -6 -5 -1 -20 -30 -17 -42 4 -11 20 -4 99 10 127 6 11 11 42
11 70 0 47 -2 50 -27 53 -26 4 -25 5 15 17 49 16 58 47 17 57 -21 5 -25 12
-25 45 0 28 4 39 15 39 8 0 15 9 15 20 0 23 34 35 82 28 18 -3 40 -2 48 2 8 4
27 13 42 20 14 7 28 20 31 30 3 13 23 20 81 29 42 6 91 11 109 12 18 0 41 4
52 9 21 9 44 8 60 -1z m-325 -54 c0 -8 -4 -15 -10 -15 -5 0 -10 7 -10 15 0 8
5 15 10 15 6 0 10 -7 10 -15z m260 -505 c0 -12 -17 -12 -45 0 -17 7 -15 9 13
9 17 1 32 -3 32 -9z m340 -546 c0 -2 -17 -4 -37 -3 -29 0 -33 2 -18 8 18 7 55
4 55 -5z m-536 -29 c18 -13 17 -14 -9 -21 -32 -8 -59 11 -35 26 19 12 21 12
44 -5z m-89 -5 c3 -5 0 -18 -6 -28 -9 -15 -40 -25 -123 -41 -105 -20 -138 -18
-122 8 4 6 14 11 22 11 8 0 14 4 14 8 0 13 71 32 119 32 22 0 41 5 41 10 0 13
47 13 55 0z m5895 -1486 c0 -20 -64 -141 -89 -169 -10 -11 -37 -49 -59 -85
-23 -36 -45 -69 -49 -75 -4 -5 -20 -29 -36 -52 -15 -24 -33 -43 -41 -43 -8 0
-17 -12 -20 -26 -5 -17 -12 -24 -21 -20 -8 3 -17 1 -20 -4 -5 -9 -61 15 -70
31 -4 5 -28 9 -56 9 -27 0 -49 4 -49 9 0 5 -18 12 -41 16 -28 5 -39 11 -35 21
3 7 -7 28 -21 45 l-27 31 24 45 c37 70 125 102 275 102 41 0 71 4 73 10 5 16
22 13 22 -4 0 -22 31 -18 37 4 3 13 11 17 25 13 17 -4 19 -1 13 17 -5 16 -2
21 10 21 9 0 19 9 22 20 3 11 11 20 17 20 7 0 27 14 45 32 26 26 34 29 42 17
7 -11 9 -9 9 9 0 12 5 22 10 22 6 0 10 -7 10 -16z m170 -64 c0 -29 -49 -87
-206 -245 -61 -62 -114 -118 -116 -126 -3 -8 -8 -11 -12 -8 -5 5 13 45 67 143
28 52 101 135 120 136 9 0 16 5 15 12 -2 7 2 13 7 13 6 1 30 20 54 43 43 41
71 53 71 32z m-1456 -812 c14 -6 28 -19 31 -28 3 -9 17 -22 30 -28 14 -6 25
-16 25 -22 0 -5 18 -19 39 -30 22 -11 44 -27 49 -37 9 -16 11 -16 27 0 18 19
35 14 35 -9 0 -8 5 -14 10 -14 6 0 10 6 10 14 0 8 -4 18 -10 21 -14 9 -12 45
3 46 6 1 29 0 50 -1 29 -1 43 4 58 21 10 12 19 17 19 10 0 -9 21 -11 80 -8 64
3 80 1 80 -10 0 -20 23 -41 54 -49 14 -3 26 -10 26 -15 0 -5 9 -9 20 -9 11 0
20 -4 20 -10 0 -5 -6 -10 -13 -10 -9 0 -14 -16 -16 -47 -3 -58 -19 -94 -48
-109 -13 -6 -20 -13 -17 -17 8 -7 -53 -39 -91 -47 -23 -4 -31 -12 -35 -35 -3
-19 -16 -35 -36 -47 l-31 -18 -33 30 c-20 19 -30 36 -26 46 3 8 -1 29 -10 46
-15 29 -17 30 -27 13 -7 -14 -6 -21 7 -30 21 -16 21 -88 0 -120 -12 -18 -13
-28 -4 -44 9 -18 7 -22 -14 -31 -13 -5 -27 -18 -31 -29 -3 -12 -15 -21 -25
-21 -10 0 -22 -4 -25 -10 -9 -14 -42 -13 -47 2 -3 7 -12 9 -22 5 -14 -6 -16
-10 -7 -21 10 -11 7 -18 -11 -30 -12 -9 -29 -16 -36 -16 -18 0 -63 -36 -55
-44 3 -3 -1 -6 -11 -6 -9 0 -14 5 -11 10 10 16 -16 12 -35 -5 -20 -18 -159
-30 -300 -27 -52 2 -174 5 -270 7 -197 5 -202 6 -224 24 -14 12 -19 11 -34 -2
-16 -15 -21 -15 -46 -2 -16 8 -39 15 -52 15 -15 0 -24 6 -24 15 0 8 -9 15 -20
15 -11 0 -20 -7 -20 -15 0 -8 -4 -15 -10 -15 -5 0 -10 6 -10 14 0 8 -20 21
-44 29 -43 15 -44 15 -74 -16 -28 -28 -32 -29 -47 -14 -9 10 -30 17 -46 17
-22 0 -41 11 -69 40 -22 23 -40 43 -40 46 0 3 -11 15 -24 28 -29 26 -28 57 2
71 12 5 22 13 22 17 0 17 61 7 77 -12 10 -11 23 -20 30 -20 14 0 35 34 26 43
-6 7 13 38 50 81 23 27 31 29 82 28 48 -1 60 2 82 24 22 22 35 26 94 27 63 2
69 4 69 22 0 12 -7 30 -15 41 -21 28 -19 31 23 39 20 4 43 11 50 17 6 6 27 14
45 17 25 6 31 11 29 28 -2 13 4 22 16 25 10 3 29 27 42 53 22 46 23 47 59 40
20 -4 38 -10 41 -15 3 -4 16 -11 30 -15 40 -12 93 -37 112 -53 19 -16 13 -42
-11 -43 -11 0 -8 -4 9 -12 47 -22 90 -76 90 -112 0 -26 4 -33 15 -29 10 4 18
-3 25 -20 8 -22 14 -25 38 -20 25 5 34 0 65 -36 20 -23 37 -52 39 -64 4 -22
-11 -67 -25 -77 -5 -4 -7 -15 -5 -25 2 -14 13 -20 38 -22 41 -3 110 -22 128
-35 6 -5 12 -6 12 -3 0 4 10 0 22 -8 33 -23 63 -20 83 10 14 22 15 28 2 42
-14 17 -30 93 -30 145 0 15 -3 27 -7 27 -4 0 -10 9 -13 19 -3 13 -11 18 -23
15 -12 -3 -25 3 -34 17 -8 12 -23 31 -32 41 -10 10 -18 24 -18 32 0 7 -7 19
-15 26 -8 7 -15 23 -15 36 0 18 -7 25 -27 30 -16 4 -34 11 -40 17 -22 16 -15
54 13 72 18 11 24 13 19 4 -5 -8 2 -5 14 6 13 11 39 25 60 31 32 9 36 13 35
42 -2 37 -3 36 30 20z m2480 -23 c18 -12 29 -13 54 -4 26 9 35 8 56 -8 14 -10
26 -21 26 -25 0 -5 7 -8 15 -8 8 0 15 -4 15 -10 0 -5 25 -10 55 -10 50 0 69
-5 115 -32 8 -5 23 -11 33 -14 9 -4 17 -12 17 -18 0 -6 9 -30 21 -51 11 -22
23 -51 25 -65 3 -14 12 -33 21 -42 11 -12 14 -28 10 -53 -3 -20 -2 -47 3 -61
6 -14 6 -33 0 -46 -7 -18 -9 -19 -9 -5 -1 13 -10 17 -41 17 -29 0 -40 4 -40
15 0 8 -11 17 -25 21 -14 3 -34 17 -44 30 -10 13 -24 24 -30 24 -6 0 -39 26
-72 58 -33 31 -63 57 -67 57 -4 0 -27 19 -52 43 -25 23 -48 42 -52 42 -4 0
-21 14 -36 30 -16 17 -33 30 -38 30 -11 0 -44 52 -44 69 0 6 9 11 19 11 11 0
23 5 26 10 8 13 12 13 39 -5z m-207 -141 c-3 -3 -12 -4 -19 -1 -8 3 -5 6 6 6
11 1 17 -2 13 -5z m39 -13 c-3 -5 16 -17 42 -28 35 -15 53 -30 65 -54 15 -31
49 -69 63 -69 3 0 25 -20 50 -45 24 -25 48 -45 54 -45 5 0 10 -9 10 -19 0 -11
23 -43 51 -71 28 -28 55 -64 61 -80 5 -17 16 -30 23 -30 20 0 89 -66 82 -77
-9 -14 -93 -37 -106 -29 -5 4 -20 -7 -32 -23 -12 -16 -30 -32 -41 -34 -23 -7
-62 28 -51 46 4 8 1 7 -10 -2 -9 -7 -36 -15 -59 -16 -24 -2 -78 -8 -121 -14
-43 -7 -82 -9 -87 -6 -6 4 -10 2 -10 -4 0 -6 -11 -6 -30 -1 -17 5 -34 9 -37 9
-19 -1 -11 19 9 25 17 6 19 9 8 13 -8 3 -31 23 -51 44 -26 29 -44 39 -66 39
-26 0 -31 5 -36 30 -4 18 -13 30 -22 30 -23 0 -18 24 9 49 l25 23 26 -26 c14
-14 28 -26 31 -26 2 0 13 14 23 32 15 24 18 42 14 80 -5 40 -3 48 11 48 9 0
15 3 14 8 -1 4 4 19 12 34 11 23 10 31 -4 52 -28 44 -20 87 21 119 34 26 70
37 59 18z m934 -90 c0 -11 3 -28 6 -38 5 -12 4 -15 -4 -8 -16 15 -26 65 -13
65 6 0 11 -9 11 -19z m-1417 -18 c14 -32 14 -130 -1 -145 -7 -7 0 -25 20 -55
33 -48 45 -47 50 7 2 25 8 36 22 38 16 4 18 0 12 -32 -7 -35 -5 -40 32 -81 6
-7 12 -20 12 -29 0 -17 -16 -31 -22 -18 -1 5 -16 -5 -33 -22 -18 -17 -23 -27
-13 -23 29 10 32 -14 5 -39 -15 -13 -31 -24 -37 -24 -5 0 -10 -4 -10 -10 0
-15 -48 -12 -53 3 -3 10 -9 10 -26 0 -11 -7 -28 -13 -36 -13 -8 0 -15 -4 -15
-8 0 -8 -63 -42 -77 -42 -3 0 -3 11 0 25 4 25 4 25 -19 10 -28 -18 -35 -19
-31 -2 1 6 -8 12 -19 12 -26 1 -54 22 -54 41 0 8 -4 14 -8 14 -13 0 -122 157
-143 204 -5 12 -15 29 -21 39 -11 15 -10 20 7 32 11 8 25 19 32 24 8 8 14 5
18 -9 8 -24 55 -28 55 -6 0 21 40 46 72 46 16 0 28 5 28 10 0 6 6 10 14 10 7
0 19 7 26 15 7 8 22 14 34 13 26 -2 86 21 86 33 0 5 18 9 40 9 33 0 42 -4 53
-27z m377 -3 c0 -5 -4 -10 -10 -10 -5 0 -10 5 -10 10 0 6 5 10 10 10 6 0 10
-4 10 -10z m997 -32 c-3 -7 -5 -2 -5 12 0 14 2 19 5 13 2 -7 2 -19 0 -25z
m-1104 -5 c-15 -6 -18 -83 -3 -83 6 0 10 -7 10 -15 0 -19 -24 -19 -40 -1 -6 8
-21 16 -33 18 -28 4 -32 53 -4 53 10 0 21 5 25 11 4 6 14 14 22 17 18 7 40 7
23 0z m1255 -85 c1 -49 5 -84 11 -86 16 -5 13 -41 -3 -58 -20 -19 -26 -18 -26
6 0 11 -7 20 -16 20 -11 0 -14 8 -12 33 2 19 8 31 16 30 7 -2 12 9 12 30 0 33
11 107 15 107 2 0 3 -37 3 -82z m-118 52 c0 -5 -4 -10 -10 -10 -5 0 -10 5 -10
10 0 6 5 10 10 10 6 0 10 -4 10 -10z m-1900 -250 c14 -23 44 -70 68 -106 51
-78 57 -112 12 -69 -30 28 -31 29 -59 12 -15 -9 -30 -14 -33 -12 -2 3 -56 7
-119 10 -91 5 -119 10 -141 25 -15 11 -34 20 -42 20 -19 0 -30 17 -16 25 5 3
17 23 26 43 26 60 28 63 59 80 17 9 32 20 33 25 8 16 75 38 86 27 18 -18 26
-10 20 23 l-5 32 43 -47 c24 -26 55 -66 68 -88z m1994 -19 c-8 -9 -34 23 -34
43 0 18 2 17 19 -9 10 -16 17 -32 15 -34z m59 45 c6 -16 -2 -28 -14 -20 -12 7
-11 34 0 34 5 0 11 -6 14 -14z m17 -70 c0 -3 -4 -8 -10 -11 -5 -3 -10 -1 -10
4 0 6 5 11 10 11 6 0 10 -2 10 -4z m-4265 -571 c135 -1 192 -10 217 -32 10 -9
25 -12 37 -8 15 5 21 2 21 -9 0 -9 5 -16 10 -16 6 0 10 4 10 10 0 27 53 34
290 42 135 4 277 10 316 13 56 5 74 3 86 -8 16 -17 18 -17 544 -21 160 -2 296
-6 302 -10 19 -12 209 -32 267 -29 31 2 65 -2 76 -7 13 -7 19 -7 19 0 0 5 22
10 48 10 36 0 54 -5 67 -20 15 -16 31 -20 83 -20 62 0 135 -15 158 -32 10 -7
89 -12 124 -7 39 5 80 -2 80 -14 0 -8 18 -20 39 -27 31 -10 41 -18 43 -39 2
-14 8 -26 13 -26 17 0 36 -16 30 -25 -11 -17 -14 -167 -5 -237 12 -93 -1 -172
-32 -193 -12 -8 -33 -26 -46 -39 -13 -13 -36 -24 -51 -25 -14 -1 -25 -6 -24
-12 1 -7 -6 -10 -18 -7 -12 3 -24 1 -28 -4 -3 -6 -41 -13 -83 -16 -64 -4 -78
-3 -78 9 0 12 -8 10 -40 -6 -22 -11 -40 -16 -40 -11 0 5 -25 8 -57 6 -212 -14
-1160 -4 -1172 13 -10 13 -44 14 -51 1 -6 -9 -15 -9 -41 0 -22 8 -35 8 -39 1
-7 -12 -110 -11 -110 1 0 4 -14 6 -30 4 -17 -2 -28 0 -25 4 2 4 -7 14 -20 21
-14 7 -27 21 -31 32 -3 10 -10 18 -15 18 -5 0 -9 6 -9 13 0 8 -11 24 -25 37
-14 13 -25 29 -25 35 0 6 -19 37 -42 67 -99 130 -150 214 -147 242 1 6 1 25 0
43 l-1 31 -77 7 c-112 9 -132 12 -192 24 -29 6 -107 11 -172 11 -73 0 -119 4
-119 10 0 6 16 10 35 10 28 0 33 3 24 13 -7 7 -28 11 -50 9 -39 -4 -51 -16
-26 -25 6 -3 -9 -6 -35 -6 -26 -1 -49 3 -52 8 -5 8 -101 14 -174 12 -12 0 -25
6 -28 14 -4 8 -9 13 -13 11 -4 -3 -20 1 -36 8 -53 24 -113 39 -124 32 -18 -12
-81 14 -81 32 -1 15 -3 14 -17 -3 -13 -16 -15 -17 -10 -2 4 10 1 17 -7 17 -18
0 -40 50 -23 51 38 4 55 8 77 18 17 7 82 9 205 4 99 -4 234 -8 300 -8z m-490
-225 c34 -13 22 -31 -19 -28 -17 1 -37 -2 -44 -6 -7 -4 -15 -1 -19 9 -11 31
32 44 82 25z m3899 -52 c21 -30 22 -108 1 -108 -11 0 -15 12 -15 50 l0 50 -40
0 c-29 0 -40 4 -40 15 0 26 75 20 94 -7z m1986 -153 c0 -11 11 -15 40 -15 33
0 40 -3 40 -20 0 -17 -7 -20 -40 -20 -38 0 -40 -2 -40 -30 0 -16 -4 -30 -10
-30 -5 0 -10 12 -10 26 0 29 -21 54 -44 54 -10 0 -16 9 -16 25 0 23 4 25 40
25 29 0 40 -4 40 -15z m140 -25 c0 -5 -9 -10 -20 -10 -11 0 -20 5 -20 10 0 6
9 10 20 10 11 0 20 -4 20 -10z m-2120 -75 c0 -41 -4 -65 -11 -65 -6 0 -9 -7
-5 -15 4 -12 2 -13 -16 -2 -16 9 -22 9 -25 0 -3 -7 -13 -13 -24 -13 -10 0 -19
-6 -19 -14 0 -9 -8 -12 -25 -8 -14 2 -25 8 -25 13 0 5 11 9 25 9 24 0 25 2 25
70 l0 70 40 0 c22 0 40 5 40 10 0 6 5 10 10 10 6 0 10 -28 10 -65z m-2199
-694 c51 -1 99 -6 108 -11 10 -5 46 -12 81 -16 37 -4 57 -10 47 -13 -10 -4 45
-8 120 -10 142 -3 156 -3 353 -17 94 -7 107 -9 70 -15 -39 -5 -33 -6 40 -9 47
-2 96 -4 110 -4 14 -1 39 -7 55 -14 30 -12 68 -12 81 1 4 3 20 -3 35 -14 21
-15 43 -20 77 -19 26 1 53 1 60 1 19 -1 14 -21 -5 -22 -15 0 -15 -2 2 -8 23
-10 73 -7 158 8 59 10 95 3 125 -26 8 -7 18 -11 23 -8 13 9 58 -25 75 -56 8
-16 20 -29 27 -29 9 0 13 -47 14 -183 1 -100 3 -198 4 -217 3 -47 -9 -80 -29
-81 -9 -1 -42 -3 -72 -5 -114 -7 -130 -9 -130 -15 0 -3 -40 -6 -89 -6 -49 -1
-97 -5 -107 -10 -11 -6 -44 -9 -74 -7 -198 11 -340 13 -340 4 0 -16 -72 -12
-84 6 -9 11 -18 13 -36 6 -27 -10 -365 -7 -381 4 -14 8 -41 -4 -34 -16 10 -15
-16 -12 -34 5 -9 8 -30 27 -47 42 -34 31 -91 102 -120 150 -10 17 -40 60 -65
95 -42 59 -69 124 -114 268 -18 60 -32 228 -21 257 7 16 8 16 16 2 8 -13 28
-17 101 -18z m364 -851 c-3 -5 -13 -10 -21 -10 -8 0 -14 5 -14 10 0 6 9 10 21
10 11 0 17 -4 14 -10z m55 0 c0 -5 -2 -10 -4 -10 -3 0 -8 5 -11 10 -3 6 -1 10
4 10 6 0 11 -4 11 -10z m394 -470 c158 0 246 -9 246 -25 0 -9 31 -15 103 -19
157 -10 217 -17 217 -27 0 -5 40 -8 89 -7 84 3 91 1 118 -23 15 -14 36 -29 46
-32 9 -4 17 -11 17 -17 0 -5 7 -10 15 -10 12 0 14 -23 9 -157 -3 -86 -7 -159
-9 -163 -2 -4 1 -23 7 -43 8 -25 17 -37 30 -37 16 0 17 -3 8 -20 -6 -11 -15
-18 -21 -15 -5 4 -9 -5 -9 -19 0 -14 5 -26 10 -26 6 0 10 -18 10 -40 0 -33 -3
-40 -20 -40 -11 0 -21 -7 -21 -15 -1 -8 -3 -19 -4 -25 -1 -5 -3 -17 -4 -26 -1
-11 -7 -15 -21 -11 -11 3 -18 1 -14 -4 3 -5 -13 -9 -35 -9 -21 0 -41 -5 -43
-11 -3 -8 -37 -8 -128 1 -69 6 -163 11 -210 10 -47 -2 -135 -2 -195 -1 l-110
1 -22 73 c-12 39 -24 92 -27 117 -3 25 -24 95 -47 155 -23 61 -51 139 -64 175
-12 36 -32 81 -43 100 -32 54 -62 142 -58 172 1 15 8 34 16 43 12 14 14 13 27
-5 13 -18 25 -20 137 -20z m1446 -285 c0 -12 -16 -15 -80 -15 -64 0 -80 3 -80
15 0 12 16 15 80 15 64 0 80 -3 80 -15z m11 -85 c26 -15 24 -30 -5 -30 -23 0
-24 -4 -31 -80 -5 -58 -11 -80 -21 -80 -10 0 -14 -12 -14 -40 0 -22 5 -40 10
-40 6 0 10 -18 10 -40 0 -22 -4 -40 -10 -40 -5 0 -10 -13 -10 -30 0 -20 5 -30
15 -30 8 0 15 -4 15 -10 0 -5 -11 -10 -25 -10 -14 0 -25 -5 -25 -10 0 -6 -8
-5 -20 2 -11 7 -18 18 -16 24 5 14 -38 57 -47 47 -4 -3 -7 -1 -7 5 0 7 -7 12
-15 12 -17 0 -18 2 -9 24 3 9 17 16 30 16 17 0 24 6 24 20 0 11 -4 20 -10 20
-6 0 -10 53 -10 140 l0 140 76 0 c41 0 84 -5 95 -10z"/>
<path d="M1040 9200 l0 -50 -40 0 c-22 0 -40 -4 -40 -10 0 -5 18 -10 40 -10
43 0 43 0 54 83 2 20 1 37 -5 37 -5 0 -9 -22 -9 -50z"/>
<path d="M1165 9220 c-3 -5 -1 -10 4 -10 6 0 11 5 11 10 0 6 -2 10 -4 10 -3 0
-8 -4 -11 -10z"/>
<path d="M1660 9220 c0 -5 5 -10 10 -10 6 0 10 5 10 10 0 6 -4 10 -10 10 -5 0
-10 -4 -10 -10z"/>
<path d="M1491 9191 c-23 -15 3 -20 55 -12 38 7 42 9 17 10 -17 0 -37 3 -45 6
-7 3 -19 1 -27 -4z"/>
<path d="M880 8163 l0 -47 40 39 c22 21 40 43 40 47 0 4 -18 8 -40 8 l-40 0 0
-47z"/>
<path d="M960 8180 c0 -13 11 -13 30 0 12 8 11 10 -7 10 -13 0 -23 -4 -23 -10z"/>
<path d="M1400 7825 c0 -9 10 -19 23 -24 27 -11 28 -10 20 17 -6 25 -43 31
-43 7z"/>
<path d="M5911 4684 c0 -11 3 -14 6 -6 3 7 2 16 -1 19 -3 4 -6 -2 -5 -13z"/>
<path d="M4495 4410 c-17 -19 -17 -22 -3 -36 13 -14 19 -13 51 3 21 10 37 26
37 36 0 25 -61 23 -85 -3z"/>
<path d="M4518 3463 c7 -3 16 -2 19 1 4 3 -2 6 -13 5 -11 0 -14 -3 -6 -6z"/>
<path d="M4993 3433 c9 -2 25 -2 35 0 9 3 1 5 -18 5 -19 0 -27 -2 -17 -5z"/>
<path d="M8113 3053 c9 -2 25 -2 35 0 9 3 1 5 -18 5 -19 0 -27 -2 -17 -5z"/>
<path d="M7330 2181 c0 -5 7 -11 15 -15 9 -3 15 0 15 9 0 8 -7 15 -15 15 -8 0
-15 -4 -15 -9z"/>
<path d="M9223 5564 c-9 -25 13 -40 26 -16 10 19 6 32 -11 32 -5 0 -11 -7 -15
-16z"/>
<path d="M10408 3153 c6 -2 18 -2 25 0 6 3 1 5 -13 5 -14 0 -19 -2 -12 -5z"/>
<path d="M10513 3013 c-76 -6 -65 -23 13 -23 46 0 64 4 62 12 -5 14 -10 15
-75 11z"/>
<path d="M10518 2903 c6 -2 18 -2 25 0 6 3 1 5 -13 5 -14 0 -19 -2 -12 -5z"/>
<path d="M10563 2845 c4 -13 77 -19 77 -7 0 6 -18 12 -40 14 -25 2 -39 0 -37
-7z"/>
</g>
</svg>
